<!--?xml version="1.0" encoding="utf-8"?-->
<!-- Generator: Adobe Illustrator 24.1.1, SVG Export Plug-In . SVG Version: 6.00 Build 0)  -->
<svg version="1.1" id="_x31_0" xmlns="http://www.w3.org/2000/svg" xmlns:xlink="http://www.w3.org/1999/xlink" x="0px" y="0px" viewBox="0 0 512 512" style="width: 48px; height: 48px; opacity: 1;" xml:space="preserve">
<style type="text/css">
	.st0{fill:#374149;}
</style>
<g>
	<path class="st0" d="M466.211,85.73c-6.887-14.324-21.73-23.664-37.754-23.664h-81.152l-9.754-41.996
		C334.809,8.258,324.422,0,312.286,0H199.703c-12.129,0-22.519,8.254-25.266,20.066l-9.758,42H83.543
		c-16.012,0-30.797,9.293-37.722,23.691C43,91.39,41.57,97.539,41.57,104.039v36.718c0,12.825,10.43,23.254,23.254,23.254h5.797
		c-2.258,4.062-3.394,8.718-3.191,13.406l2.313,54.234l9.004,212.27c1.078,25.422,18.926,47.242,43.398,53.059
		C164.07,506.95,209.098,512,255.969,512c46.535,0,91.25-4.977,132.898-14.789c25.051-5.898,43.301-27.821,44.379-53.301l9-212.262
		l2.312-54.231c0.199-4.691-0.934-9.343-3.191-13.406h5.758c12.848,0,23.305-10.43,23.305-23.254v-36.718
		C470.43,97.57,469.012,91.406,466.211,85.73z M129.317,149.762h253.351l-0.262,15.527H129.578L129.317,149.762z M408.504,186.668
		l-1.851,43.473l-9.004,212.258c-0.406,9.598-7.379,17.879-16.95,20.133c-38.984,9.184-80.949,13.84-124.73,13.84
		c-44.106,0-86.363-4.73-125.586-14.054c-9.039-2.153-15.637-10.333-16.039-19.906l-9.004-212.278l-1.852-43.465H408.504z
		 M196.89,76.32l7.59-32.679c1.23-5.297,5.949-9.043,11.382-9.043h80.258c5.438,0,10.153,3.746,11.387,9.043l7.586,32.679H196.89z
		 M77.199,104.039c0-0.91,0.164-1.699,0.488-2.34l0.122-0.242l0.113-0.238c0.774-1.625,2.707-3.523,5.622-3.523h344.914
		c2.93,0,4.871,1.867,5.797,3.789c0.364,0.734,0.547,1.594,0.547,2.555v24.344H77.199V104.039z" style="fill: rgb(75, 75, 75);"></path>
	<path class="st0" d="M156.879,394.406h12.066c3.953,0,7.16-3.27,7.16-7.305V255.5c0-4.039-3.207-7.309-7.16-7.309h-12.066
		c-3.958,0-7.16,3.27-7.16,7.309v131.602C149.719,391.137,152.922,394.406,156.879,394.406z" style="fill: rgb(75, 75, 75);"></path>
	<path class="st0" d="M218.934,394.406H231c3.957,0,7.16-3.27,7.16-7.305V255.5c0-4.039-3.203-7.309-7.16-7.309h-12.066
		c-3.953,0-7.16,3.27-7.16,7.309v131.602C211.774,391.137,214.981,394.406,218.934,394.406z" style="fill: rgb(75, 75, 75);"></path>
	<path class="st0" d="M280.985,394.406h12.07c3.954,0,7.161-3.27,7.161-7.305V255.5c0-4.039-3.207-7.309-7.161-7.309h-12.07
		c-3.95,0-7.157,3.27-7.157,7.309v131.602C273.828,391.137,277.035,394.406,280.985,394.406z" style="fill: rgb(75, 75, 75);"></path>
	<path class="st0" d="M343.039,394.406h12.07c3.953,0,7.16-3.27,7.16-7.305V255.5c0-4.039-3.207-7.309-7.16-7.309h-12.07
		c-3.953,0-7.156,3.27-7.156,7.309v131.602C335.883,391.137,339.086,394.406,343.039,394.406z" style="fill: rgb(75, 75, 75);"></path>
</g>
</svg>
